<svg id="Capa_1" enable-background="new 0 0 511.785 511.785" height="512" viewBox="0 0 511.785 511.785" width="512" xmlns="http://www.w3.org/2000/svg"><g><g><path d="m183.524 45.264h47.884c4.135 0 7.487-3.352 7.487-7.487s-3.352-7.487-7.487-7.487h-47.884c-4.135 0-7.487 3.352-7.487 7.487s3.352 7.487 7.487 7.487z"/><path d="m138.044 377.254h138.842c4.135 0 7.487-3.352 7.487-7.487s-3.352-7.487-7.487-7.487h-138.842c-4.135 0-7.487 3.352-7.487 7.487s3.352 7.487 7.487 7.487z"/><path d="m138.044 408.274h138.842c4.135 0 7.487-3.352 7.487-7.487s-3.352-7.487-7.487-7.487h-138.842c-4.135 0-7.487 3.352-7.487 7.487 0 4.134 3.352 7.487 7.487 7.487z"/><path d="m138.044 439.294h138.842c4.135 0 7.487-3.352 7.487-7.487s-3.352-7.487-7.487-7.487h-138.842c-4.135 0-7.487 3.352-7.487 7.487s3.352 7.487 7.487 7.487z"/><path d="m423.27 125.897c-2.539-3.263-7.243-3.852-10.507-1.312-3.264 2.539-3.851 7.243-1.313 10.507 17.059 21.929 26.015 48.247 25.9 76.109-.134 32.182-12.673 62.618-35.309 85.701-22.638 23.085-52.82 36.208-84.985 36.952-17.093.393-33.693-2.643-49.366-9.028-2.541-1.036-5.176-1.561-7.83-1.561-.006 0-.012 0-.017 0l-47.02.035c-.002 0-.003 0-.005 0-1.742 0-3.362-.696-4.561-1.961-1.2-1.265-1.809-2.922-1.715-4.663l1.949-35.972c.207-3.809-.648-7.581-2.472-10.907-10.052-18.342-15.269-39.164-15.086-60.217.586-67.292 55.822-122.071 123.13-122.112h.076c26.961 0 52.563 8.547 74.039 24.717 3.303 2.487 7.998 1.826 10.485-1.478 2.487-3.303 1.826-7.998-1.477-10.485-12.76-9.608-26.823-16.789-41.715-21.445v-40.907c0-20.881-16.989-37.87-37.871-37.87h-220.27c-20.882 0-37.871 16.989-37.871 37.87v436.045c0 20.881 16.989 37.87 37.871 37.87h220.272c20.882 0 37.871-16.989 37.871-37.87v-131.352c21.451-6.721 41.078-18.675 57.261-35.177 25.381-25.883 39.442-60.02 39.592-96.123.128-31.247-9.918-60.766-29.056-85.366zm-82.772 348.018c0 12.624-10.271 22.896-22.896 22.896h-220.272c-12.625 0-22.896-10.271-22.896-22.896v-436.045c0-12.624 10.271-22.896 22.896-22.896h220.272c12.625 0 22.896 10.271 22.896 22.896v37.134c-6.529-1.254-13.179-2.048-19.92-2.354v-23.063c0-10.641-8.657-19.297-19.298-19.297h-23.126c-6.805 0-13.177 3.643-16.63 9.508l-8.089 13.742c-.774 1.314-2.201 2.13-3.726 2.13h-84.487c-1.525 0-2.952-.816-3.726-2.13l-8.089-13.742c-3.453-5.865-9.825-9.508-16.63-9.508h-23.126c-10.641 0-19.298 8.657-19.298 19.297v247.673c0 4.135 3.352 7.487 7.487 7.487s7.487-3.352 7.487-7.487v-247.673c0-2.384 1.94-4.323 4.323-4.323h23.126c1.525 0 2.953.816 3.726 2.13l8.089 13.742c3.452 5.865 9.825 9.508 16.63 9.508h84.487c6.806 0 13.178-3.643 16.63-9.508l8.089-13.742c.773-1.314 2.201-2.13 3.725-2.13h23.126c2.384 0 4.323 1.939 4.323 4.323v23.178c-71.605 4.423-129.009 64.048-129.642 136.683-.206 23.607 5.648 46.964 16.928 67.545.481.878.706 1.881.651 2.9l-1.949 35.972c-.315 5.806 1.799 11.557 5.799 15.776 3.997 4.216 9.619 6.633 15.428 6.633h.016l47.021-.035h.004c.708 0 1.442.153 2.181.454 13.952 5.684 28.56 8.995 43.563 9.903v113.602c0 2.384-1.94 4.323-4.323 4.323h-187.627c-2.384 0-4.323-1.939-4.323-4.323v-130.009c0-4.135-3.352-7.487-7.487-7.487s-7.487 3.352-7.487 7.487v130.009c0 10.641 8.657 19.297 19.298 19.297h187.628c10.641 0 19.298-8.657 19.298-19.297v-113.486c6.739-.309 13.392-1.102 19.92-2.363z"/><path d="m222.136 305.71c2.225 2.347 5.354 3.692 8.597 3.692 0 0 42.174-.031 42.176-.031 2.599-.141 6.476 2.307 8.974 3.095 23.647 7.458 49.978 6.449 72.996-3.107 13.201-5.481 25.219-13.661 35.244-23.841 19.618-19.922 30.549-46.182 30.777-73.942.238-28.891-10.885-56.04-31.321-76.447-20.436-20.406-47.562-31.51-76.494-31.211-27.594.267-53.723 11.116-73.573 30.549-19.856 19.437-31.251 45.329-32.085 72.907-.578 19.092 3.94 37.97 13.063 54.594.185.337.27.748.247 1.187l-1.83 33.773c-.175 3.232 1.001 6.433 3.229 8.782zm.259-97.883c.717-23.691 10.516-45.944 27.592-62.66 17.074-16.715 39.535-26.046 63.243-26.276 24.852-.247 48.199 9.289 65.767 26.833 17.57 17.544 27.133 40.887 26.928 65.727-.196 23.85-9.598 46.423-26.473 63.559-16.876 17.137-39.299 26.879-63.138 27.43-12.725.298-25.103-1.969-36.779-6.725-2.147-.875-4.377-1.319-6.628-1.319-.004 0-.009 0-.013 0l-38.857.029 1.65-30.46c.175-3.231-.541-6.413-2.071-9.202-7.837-14.283-11.718-30.513-11.221-46.936z"/><path d="m308.697 269.55c8.185 3.687 16.266 5.512 24.063 5.511 14.077 0 27.222-5.952 38.341-17.641 5.565-5.849 8.447-13.532 7.708-20.55-.618-5.874-3.759-11.026-8.842-14.508l-.233-.16c-7.904-5.415-22.616-15.495-35.376-5.689-2.862 2.199-4.86 4.726-6.466 6.757-2.577 3.259-3.451 4.118-5.477 4.415-3.626.536-9.11-2.464-14.315-7.814-5.916-6.082-9.579-13.06-10.479-16.97-.266-1.156-.335-2.504.954-4.527 1.388-2.178 4.35-3.482 6.245-5.208 8.44-7.69 8.074-20.767-.911-32.541-15.71-20.586-30.212-14.518-37.46-9.07-7.218 5.427-12.585 13.641-15.111 23.129-4.448 16.704-1.308 35.106 8.843 51.814 11.104 18.279 29.241 34.373 48.516 43.052zm-42.89-91.013c1.667-6.261 5.091-11.593 9.64-15.013 1.34-1.008 2.986-2.246 5.206-2.246 2.741 0 6.357 1.888 11.349 8.43 2.316 3.035 5.867 9.529 2.73 12.387-.586.534-1.275 1.025-2.073 1.594-2.029 1.446-4.554 3.245-6.714 6.636-3.211 5.038-4.193 10.399-2.919 15.934 3.31 14.384 22.668 39.003 41.559 36.242 8.133-1.192 12.132-6.25 15.052-9.944 1.316-1.665 2.453-3.102 3.844-4.171 3.821-2.935 10.883 1.437 17.789 6.169l.234.16c1.506 1.031 2.25 2.179 2.412 3.721.277 2.631-1.162 6.031-3.665 8.662-12.924 13.586-28.202 16.547-45.407 8.798-16.622-7.485-32.273-21.382-41.868-37.174-8.011-13.188-10.557-27.459-7.169-40.185z"/></g></g></svg>