<svg xmlns="http://www.w3.org/2000/svg" width="35.926" height="35.925" viewBox="0 0 35.926 35.925"><g id="facebook" transform="translate(-1768.248 -62.368)"><path id="Caminho_14377" data-name="Caminho 14377" d="M1799.964,62.368h-27.506a4.215,4.215,0,0,0-4.21,4.21v27.5a4.215,4.215,0,0,0,4.21,4.21h27.506a4.215,4.215,0,0,0,4.21-4.21v-27.5A4.215,4.215,0,0,0,1799.964,62.368Zm1.4,31.715a1.4,1.4,0,0,1-1.4,1.4h-8.28V85.242h4.493l.523-4.35h-5.016v-4.7a2.059,2.059,0,0,1,2.1-2.105h3.157V70.016a31.016,31.016,0,0,0-3.157-.281,6.5,6.5,0,0,0-4.5,1.894,6.39,6.39,0,0,0-1.954,4.574v4.689h-4.561v4.35h4.561V95.486h-14.876a1.4,1.4,0,0,1-1.4-1.4v-27.5a1.406,1.406,0,0,1,1.4-1.4h27.506a1.406,1.406,0,0,1,1.4,1.4Z" fill="#ccc"/></g></svg>