<svg xmlns="http://www.w3.org/2000/svg" width="66.241" height="72.891" viewBox="0 0 66.241 72.891">
  <g id="Grupo_263" data-name="Grupo 263" transform="translate(-266.142 -3545.609)">
    <path id="Caminho_13900" data-name="Caminho 13900" d="M280.2,3608.772a1.08,1.08,0,1,0,1.08,1.08A1.082,1.082,0,0,0,280.2,3608.772Z" fill="#840101" stroke="#840101" stroke-miterlimit="10" stroke-width="1"/>
    <path id="Caminho_13901" data-name="Caminho 13901" d="M320.538,3562.352a4.187,4.187,0,1,0,4.187,4.186A4.191,4.191,0,0,0,320.538,3562.352Zm0,6.388a2.2,2.2,0,1,1,2.2-2.2A2.2,2.2,0,0,1,320.538,3568.74Z" fill="#840101" stroke="#840101" stroke-miterlimit="10" stroke-width="1"/>
    <path id="Caminho_13902" data-name="Caminho 13902" d="M296.041,3599.19a.986.986,0,0,0-.291-.7l-1.215-1.215,1.215-1.216a.99.99,0,0,0,0-1.4,1.015,1.015,0,0,0-1.4,0l-1.215,1.215-1.215-1.215a1.015,1.015,0,0,0-1.4,0,.992.992,0,0,0,0,1.4l1.215,1.216-1.215,1.215a.992.992,0,0,0,0,1.4,1.015,1.015,0,0,0,1.4,0l1.215-1.215,1.215,1.215a1.015,1.015,0,0,0,1.4,0A.986.986,0,0,0,296.041,3599.19Z" fill="#840101" stroke="#840101" stroke-miterlimit="10" stroke-width="1"/>
    <path id="Caminho_13903" data-name="Caminho 13903" d="M331.552,3593.2c-.74-.741-4.656-3.209-11.028-6.951l-.49-.287.523-.222c.379-.161.768-.341,1.155-.534a1,1,0,0,0,.529-1.082l-.614-3.085a.992.992,0,0,0-.864-.792c-6.375-.709-8.927-3.2-10.292-5.022a22.655,22.655,0,0,1-2.178-3.789,23.768,23.768,0,0,0-1.475-2.711,14.947,14.947,0,0,0-4.475-3.72c-3.114-1.994-5.8-3.717-4.43-7.15.919-2.3,1.733-2.162,3.489-1.636a3.82,3.82,0,0,0,3.2.016,4.216,4.216,0,0,0,1.67-3.026c.5-2.481.706-3.71.064-4.522-.524-.661-1.308-.688-2.216-.718a13.063,13.063,0,0,1-4.841-.987c-3.629-1.451-5.128-1.021-6.711-.309a4.579,4.579,0,0,1-3.638.268c-.3-.074-.574-.123-.805-.162-3.946-.675-5.115,1.653-5.889,3.191a4.71,4.71,0,0,1-.637,1.065c-.923.92-2.931.776-4.986-1.277a4.378,4.378,0,0,0-4.982-.666c-2.152.891-4.378,3.08-4.378,5.2a9.361,9.361,0,0,0,.532,2.679,8.246,8.246,0,0,1-.427,7.1c-.88,1.761-.941,3.159-.179,4.156,1.331,1.744,4.477,1.217,5.094,1.093a1,1,0,0,0,.322-.125l6.356-3.875,4.1,2.255.039.088a40.457,40.457,0,0,0,2.762,4.594c.453.7.9,1.371,1.267,1.968,1.148,1.838,7.132,11.07,12.191,12.334a29.182,29.182,0,0,1,9.756,5.028c2.887,2.286,6.193,5.961,5.546,10.495-.7,4.879-2.192,5.026-4.772,4.872l-.044-.006-11.662-2.536a.989.989,0,0,0-1.111.555l-2.689,5.84a.991.991,0,0,0,0,.838l1.643,3.482a1,1,0,0,0,.791.563l6.274.682c.663.225,1.391.507,2.162.806l.142.054c.618.24,1.253.485,1.882.712a.978.978,0,0,0,.338.06h5.911a.993.993,0,0,0,.937-.667,3.231,3.231,0,0,0,.18-1.075c0-4.646,1.857-4.646,2.75-4.646a9.332,9.332,0,0,0,6.42-3.691,7.88,7.88,0,0,0,1.495-6.994,11.7,11.7,0,0,0-1.861-3.464,7.974,7.974,0,0,1-1.349-2.317c0-.176.115-.267.3-.36,1.067-.535,2.676.775,3.968,1.828,1.048.854,1.8,1.471,2.616,1.471a1,1,0,0,0,.85-.481l1.917-3.2A.991.991,0,0,0,331.552,3593.2Zm-44.587-22.861-.527-.827a17.028,17.028,0,0,1-1.647-2.929.985.985,0,0,0-.467-.571L279.4,3563.3a.993.993,0,0,0-.995.022l-6.69,4.077-.056.009c-.9.142-2.489.161-2.909-.392-.251-.33-.113-1.082.378-2.063a10.271,10.271,0,0,0,.552-8.561,7.689,7.689,0,0,1-.447-2.1c0-1.06,1.532-2.7,3.153-3.369a2.45,2.45,0,0,1,2.82.236,7.713,7.713,0,0,0,4.234,2.357,4.13,4.13,0,0,0,3.557-1.079,5.944,5.944,0,0,0,1-1.564c.582-1.158,1.082-2.154,2.667-2.215l.3-.011Zm21.721,18.519-.443-.292a29.911,29.911,0,0,0-8.455-3.933c-3.053-.762-7.622-6.152-10.795-11.155l-.045-.07v-24.427l.334.057a6.236,6.236,0,0,0,4.1-.556c1.086-.489,2.024-.913,5.16.343a15,15,0,0,0,5.509,1.125l.1,0c.111,0,.226.008.332.014l.289.016-.02.29c-.047.669-.3,1.928-.419,2.534-.262,1.312-.611,1.644-.749,1.726-.253.155-.7.058-1.6-.215-1.6-.478-4.272-1.279-5.9,2.8-1.982,4.957,1.835,7.4,5.2,9.559a13.488,13.488,0,0,1,3.894,3.15,22.256,22.256,0,0,1,1.342,2.478,26.55,26.55,0,0,0,2.124,3.748l.053.075Zm0,27.161-.992-.018c-.567-.208-1.138-.429-1.693-.644l.1-.27h0l-.1.267c-.84-.325-1.708-.66-2.454-.909a.93.93,0,0,0-.207-.045l-5.8-.623-1.208-2.562,2.162-4.7,10.2,2.218Zm19.847-20.182-.254-.2c-.218-.167-.454-.359-.661-.527l-.045-.037c-1.551-1.264-3.893-3.173-6.109-2.064a2.3,2.3,0,0,0-1.291,1.479c-.333,1.293.6,2.654,1.589,4.094a10.372,10.372,0,0,1,1.574,2.833,5.877,5.877,0,0,1-1.137,5.286,7.414,7.414,0,0,1-4.854,2.924c-3.057,0-4.6,2-4.726,6.112l-.009.277H310.67v-7.059l.276-.009c2.825-.094,4.862-1.251,5.626-6.589.592-4.147-1.413-8.268-5.8-11.917l-.1-.086v-12l.466.378a16.865,16.865,0,0,0,8.485,3.36l.2.029.324,1.626-.211.092a10.178,10.178,0,0,1-2.2.717l0,.039h-.3a.992.992,0,0,0-.5,1.85c4.576,2.65,10.3,6.086,12.4,7.526l.222.153Z" fill="#840101" stroke="#840101" stroke-miterlimit="10" stroke-width="1"/>
    <path id="Caminho_13904" data-name="Caminho 13904" d="M273.076,3585.793c-.115.173-2.808,4.287-1.393,8.53,1.391,4.174,6.662,6.85,6.886,6.962a1,1,0,0,0,.911-.013h0a.994.994,0,0,0,.517-.751l1.277-10.222a.994.994,0,0,0-.473-.974l-6.389-3.833a.99.99,0,0,0-1.336.3Zm1.059,2.218.132-.292,4.958,2.975-1.012,8.1-.387-.265c-1.282-.876-3.539-2.67-4.261-4.836A7.947,7.947,0,0,1,274.135,3588.011Z" fill="#840101" stroke="#840101" stroke-miterlimit="10" stroke-width="1"/>
  </g>
</svg>
