<svg xmlns="http://www.w3.org/2000/svg" width="52.651" height="67.294" viewBox="0 0 52.651 67.294">
  <path id="Caminho_13898" data-name="Caminho 13898" d="M1014.825,3551.831a1.971,1.971,0,0,0-1.679-1.527,65.64,65.64,0,0,0-22.342.712,43.5,43.5,0,0,0-21.7,11.722,23.57,23.57,0,0,0,2.824,35.726v16.546a1.971,1.971,0,0,0,3.943,0v-14.227a23.607,23.607,0,0,0,26.547-4.731c6.944-6.944,5.506-16.512,5.033-21.881-.722-8.2-1.347-15.277,6.506-20.244A1.971,1.971,0,0,0,1014.825,3551.831Zm-42.933,13.695c6.944-6.943,15.967-10.862,26.929-11.72a46.4,46.4,0,0,0-13.212,9.818,49.774,49.774,0,0,0-13.477,29.874,19.649,19.649,0,0,1-.24-27.972Zm31.63,8.991c.619,7.02,1.2,13.65-3.894,18.747a19.644,19.644,0,0,1-23.725,3.093,45.873,45.873,0,0,1,12.569-30.021,42.61,42.61,0,0,1,12.046-8.965,32.813,32.813,0,0,1,6.324-2.343,16.829,16.829,0,0,0-3.173,6.845c-.9,4.08-.518,8.434-.147,12.644Z" transform="translate(-962.222 -3549.687)" fill="#840101"/>
</svg>
