<svg xmlns="http://www.w3.org/2000/svg" width="73.73" height="80.207" viewBox="0 0 73.73 80.207">
  <g id="Out_line" data-name="Out line" transform="translate(-1595.8 -3541.5)">
    <g id="Grupo_265" data-name="Grupo 265">
      <path id="Caminho_13905" data-name="Caminho 13905" d="M1667.7,3589.572a16.817,16.817,0,0,0-13.656,7.028l-1.754,2.456-11.318,3.773h-.562l9.668-9.668a1.325,1.325,0,0,0-.937-2.263H1646.2a22.866,22.866,0,0,0-16.162,6.628h-7.165a14.616,14.616,0,0,0-10.4,4.308l-15.966,15.966,1.875,1.874,15.966-15.965a11.973,11.973,0,0,1,8.525-3.531h7.713a1.326,1.326,0,0,0,.938-.389l.275-.274a20.229,20.229,0,0,1,14.145-5.964l-11.3,11.295,1.875,1.875,1.241-1.241h3.428a1.329,1.329,0,0,0,.419-.068l11.931-3.977a1.324,1.324,0,0,0,.66-.487l2.005-2.807a14.161,14.161,0,0,1,8.933-5.682l-7.613,11.964-17.933,7.686h-18.287a1.325,1.325,0,0,0-.938.388l-6.628,6.628,1.875,1.875,6.24-6.24h18.01a1.338,1.338,0,0,0,.522-.107l18.56-7.954a1.324,1.324,0,0,0,.6-.507l9.28-14.582a1.326,1.326,0,0,0-1.119-2.038Z" fill="#840101"/>
      <path id="Caminho_13906" data-name="Caminho 13906" d="M1615.616,3621.707l-2.582-2.582,6.982-6.981a1.816,1.816,0,0,1,1.291-.536h18.184l17.7-7.584,6.875-10.8a13.589,13.589,0,0,0-7.45,5.211l-2,2.807a1.824,1.824,0,0,1-.909.671l-11.931,3.977a1.839,1.839,0,0,1-.577.093h-3.221l-1.448,1.448-2.581-2.581,10.743-10.744a19.6,19.6,0,0,0-12.532,5.764l-.276.276a1.839,1.839,0,0,1-1.291.535h-7.745a11.548,11.548,0,0,0-8.139,3.384l-16.32,16.32-2.582-2.582,16.319-16.32a15.2,15.2,0,0,1,10.714-4.454h7a23.213,23.213,0,0,1,16.3-6.629h3.01a1.826,1.826,0,0,1,1.291,3.118l-8.451,8.451,10-3.332,1.659-2.324a17.356,17.356,0,0,1,14.062-7.238h0a1.824,1.824,0,0,1,1.54,2.806l-9.279,14.583a1.827,1.827,0,0,1-.821.7l-18.56,7.954a1.8,1.8,0,0,1-.719.148h-17.8Zm-1.167-2.582,1.167,1.168,6.033-6.033h18.217a.818.818,0,0,0,.324-.067l18.56-7.954a.826.826,0,0,0,.373-.316l9.279-14.582a.815.815,0,0,0,.109-.622.823.823,0,0,0-.806-.647,16.358,16.358,0,0,0-13.25,6.819l-1.847,2.588-11.631,3.85h-1.769l10.522-10.521a.826.826,0,0,0,0-1.168.835.835,0,0,0-.584-.243h-3.009a22.214,22.214,0,0,0-15.746,6.485l-.147.144h-7.41a14.2,14.2,0,0,0-10.007,4.161l-15.613,15.613,1.168,1.168,15.612-15.613a12.561,12.561,0,0,1,8.846-3.677h7.746a.827.827,0,0,0,.583-.241l.276-.276a20.6,20.6,0,0,1,14.494-6.11l1.223-.012-11.806,11.808,1.167,1.167,1.034-1.034h3.635a.826.826,0,0,0,.26-.042l11.932-3.977a.82.82,0,0,0,.411-.3l2-2.807a14.589,14.589,0,0,1,9.25-5.881l1.13-.21-8.313,13.062-.142.062-18.13,7.725h-18.287a.817.817,0,0,0-.584.243Z" fill="#840101"/>
    </g>
    <g id="Grupo_266" data-name="Grupo 266">
      <path id="Caminho_13907" data-name="Caminho 13907" d="M1634.951,3590.509a1.325,1.325,0,0,0,1.875,0h0l23.854-23.874a14.432,14.432,0,0,0-20.415-20.406l-4.377,4.377-4.377-4.377a14.432,14.432,0,0,0-20.415,20.406Zm-21.975-42.405a11.781,11.781,0,0,1,16.661,0l5.315,5.315a1.327,1.327,0,0,0,1.875,0l5.314-5.315a11.781,11.781,0,0,1,16.664,16.657h0l-22.916,22.936-22.916-22.936A11.8,11.8,0,0,1,1612.976,3548.1Z" fill="#840101"/>
      <path id="Caminho_13908" data-name="Caminho 13908" d="M1635.889,3591.4a1.813,1.813,0,0,1-1.291-.535l-23.855-23.873A14.933,14.933,0,0,1,1621.3,3541.5h0a14.836,14.836,0,0,1,10.558,4.376l4.023,4.023,4.023-4.023a14.932,14.932,0,1,1,21.122,21.113l-23.853,23.873A1.815,1.815,0,0,1,1635.889,3591.4Zm-14.585-48.9a13.932,13.932,0,0,0-9.854,23.782l23.855,23.873a.827.827,0,0,0,1.168,0l23.854-23.874a13.932,13.932,0,1,0-19.708-19.7l-4.73,4.73-4.731-4.73a13.837,13.837,0,0,0-9.85-4.083Zm14.585,45.9-23.27-23.288a12.317,12.317,0,0,1,0-17.365h0a12.294,12.294,0,0,1,17.368,0l5.314,5.315a.844.844,0,0,0,1.168,0l5.314-5.315a12.205,12.205,0,0,1,8.684-3.6h0a12.281,12.281,0,0,1,8.685,20.964Zm-22.559-39.946a11.317,11.317,0,0,0,0,15.952l22.562,22.58,22.562-22.581a11.281,11.281,0,1,0-15.957-15.951l-5.314,5.315a1.826,1.826,0,0,1-2.582,0l-5.315-5.315a11.294,11.294,0,0,0-15.953,0Z" fill="#840101"/>
    </g>
  </g>
</svg>
