<svg xmlns="http://www.w3.org/2000/svg" width="68.697" height="68.697" viewBox="0 0 68.697 68.697">
  <path id="Caminho_13899" data-name="Caminho 13899" d="M614.978,3575.293v34.05a7.541,7.541,0,0,0,7.532,7.532h52.633a7.541,7.541,0,0,0,7.532-7.532V3556.71a7.541,7.541,0,0,0-7.532-7.532H622.51a7.541,7.541,0,0,0-7.532,7.532v18.583Zm1.983-3.967v-3.736h14.445v14.445H616.961v-10.709Zm63.73,23.006v4.131H666.246v-14.445h14.445v10.314Zm-63.73-10.314h14.445v14.445H616.961Zm16.429-16.428h14.445v14.445H633.39Zm0,16.428h14.445v14.445H633.39Zm16.428,0h14.445v14.445H649.818Zm30.873-1.983H666.246V3567.59h14.445Zm-16.428,0H649.818V3567.59h14.445Zm-30.873,18.411h14.445v14.445H633.39Zm16.428,0h14.445v14.445H649.818Zm30.873,0v8.9a5.555,5.555,0,0,1-5.548,5.548h-8.9v-14.445Zm0-43.736v8.9H666.246v-14.445h8.9A5.555,5.555,0,0,1,680.691,3556.71Zm-16.428,8.9H649.818v-14.445h14.445Zm-16.428,0H633.39v-14.445h14.445Zm-30.874-8.9a5.555,5.555,0,0,1,5.549-5.549h8.9v14.445H616.961Zm0,43.736h14.445v14.445h-8.9a5.555,5.555,0,0,1-5.549-5.548Z" transform="translate(-614.478 -3548.678)" fill="#840101" stroke="#840101" stroke-miterlimit="10" stroke-width="1"/>
</svg>
