<svg xmlns="http://www.w3.org/2000/svg" width="69.711" height="69.71" viewBox="0 0 69.711 69.71">
  <g id="Grupo_270" data-name="Grupo 270" transform="translate(-1251.577 -3547.625)">
    <g id="Grupo_269" data-name="Grupo 269">
      <path id="Caminho_13909" data-name="Caminho 13909" d="M1286.432,3566.953c6.223-3.745,10.59-7.775,10.511-12.088a11.126,11.126,0,0,0-21.022,0c-.028,4.044,3.653,7.974,10.511,12.088Zm-3.645-14.912c1.648-.05,2.707,1.686,3.645,2.7.847-.949,2.164-2.852,3.645-2.7a2.828,2.828,0,0,1,2.825,2.824c0,1.4-1.155,3.78-6.47,7.3-5.314-3.522-6.47-5.9-6.47-7.3A2.828,2.828,0,0,1,1282.787,3552.041Z" fill="#840101" stroke="#e6e6e6" stroke-miterlimit="10" stroke-width="0.75"/>
      <path id="Caminho_13910" data-name="Caminho 13910" d="M1310.025,3588.1a12.164,12.164,0,1,0-14.725,0,18.091,18.091,0,0,0-2.065,1.076,10.113,10.113,0,0,0-10.68-1.856,18.287,18.287,0,0,0-4.991-3.277,12.163,12.163,0,1,0-14.724,0,18.275,18.275,0,0,0-10.888,16.7v16.221h68.961V3604.8A18.277,18.277,0,0,0,1310.025,3588.1Zm-15.486-9.676a8.124,8.124,0,1,1,8.123,8.123,8.133,8.133,0,0,1-8.123-8.123Zm-2.012,18.258a6.094,6.094,0,1,1-6.095-6.094A6.1,6.1,0,0,1,1292.527,3596.681Zm-30.448-22.316a8.124,8.124,0,1,1,8.124,8.124A8.133,8.133,0,0,1,1262.079,3574.365Zm12.358,38.555h-18.444v-12.181a14.2,14.2,0,0,1,23.121-11.059,10.114,10.114,0,0,0,.966,14.891,12.191,12.191,0,0,0-5.643,8.349Zm4.126,0a8.125,8.125,0,0,1,15.739,0Zm38.309,0h-18.444a12.191,12.191,0,0,0-5.643-8.349,10.111,10.111,0,0,0,2.853-12.122,14.2,14.2,0,0,1,21.234,12.347Z" fill="#840101" stroke="#e6e6e6" stroke-miterlimit="10" stroke-width="0.75"/>
    </g>
  </g>
</svg>
