<svg id="Layer_1" enable-background="new 0 0 511.773 511.773" height="512" viewBox="0 0 511.773 511.773" width="512" xmlns="http://www.w3.org/2000/svg"><g><path d="m327.646 34.74c4.14 0 7.5-3.36 7.5-7.5-.339-9.929-14.663-9.926-15 0 0 4.14 3.359 7.5 7.5 7.5z"/><path d="m403.646 34.74c4.14 0 7.5-3.36 7.5-7.5-.339-9.929-14.663-9.926-15 0 0 4.14 3.359 7.5 7.5 7.5z"/><path d="m289.646 34.74c4.14 0 7.5-3.36 7.5-7.5-.339-9.929-14.663-9.926-15 0 0 4.14 3.359 7.5 7.5 7.5z"/><path d="m365.646 34.74c4.14 0 7.5-3.36 7.5-7.5-.339-9.929-14.663-9.926-15 0 0 4.14 3.359 7.5 7.5 7.5z"/><path d="m441.646 34.74c4.14 0 7.5-3.36 7.5-7.5-.339-9.929-14.663-9.926-15 0 0 4.14 3.359 7.5 7.5 7.5z"/><path d="m478.556 35.83c4.14 0 7.5-3.36 7.5-7.5-.339-9.929-14.663-9.926-15 0 0 4.14 3.359 7.5 7.5 7.5z"/><path d="m478.556 73.83c4.14 0 7.5-3.36 7.5-7.5-.339-9.929-14.663-9.926-15 0 0 4.14 3.359 7.5 7.5 7.5z"/><path d="m478.556 111.83c4.14 0 7.5-3.36 7.5-7.5-.346-9.928-14.656-9.925-15 0 0 4.14 3.359 7.5 7.5 7.5z"/><path d="m22.636 408.92c4.14 0 7.5-3.36 7.5-7.5-.339-9.929-14.663-9.926-15 0 0 4.14 3.359 7.5 7.5 7.5z"/><path d="m64.335 434.22c-4.14 0-7.5 3.35-7.5 7.5.342 9.915 14.66 9.913 15 0 0-4.151-3.359-7.5-7.5-7.5z"/><path d="m105.335 434.22c-4.14 0-7.5 3.35-7.5 7.5.342 9.915 14.66 9.913 15 0 0-4.151-3.359-7.5-7.5-7.5z"/><path d="m23.335 434.22c-4.14 0-7.5 3.35-7.5 7.5.342 9.915 14.66 9.913 15 0 0-4.151-3.359-7.5-7.5-7.5z"/><path d="m22.636 326.92c4.14 0 7.5-3.36 7.5-7.5-.339-9.929-14.663-9.926-15 0 0 4.14 3.359 7.5 7.5 7.5z"/><path d="m22.636 367.92c4.14 0 7.5-3.36 7.5-7.5-.346-9.928-14.656-9.925-15 0 0 4.14 3.359 7.5 7.5 7.5z"/><path d="m22.636 285.92c4.14 0 7.5-3.36 7.5-7.5-.339-9.929-14.663-9.926-15 0 0 4.14 3.359 7.5 7.5 7.5z"/><path d="m504.383 353.232c-4.167-.261-7.694 2.886-7.951 7.02-1.353 21.758-6.444 42.343-15.165 61.387-16.718-31.951-42.964-58.686-75.913-75.847 45.131-42.285 47.856-119.7 3.848-165.126-4.776-3.7-8.868-3.055-12.274 1.936-33.708 71.953-108.994 94.445-183.024 80.092-5.595-.292-8.563 2.358-8.903 7.95 2.241 28.563 14.71 55.136 35.201 75.166-32.771 17.071-58.898 43.583-75.618 75.291-20.903-44.939-21.289-100.175-.61-145.113l10.583 7.779c4.904 3.605 11.942-.023 11.942-6.043v-27.518h11.016c17.43 0 33.953-6.919 46.527-19.483 12.574-12.565 19.5-29.079 19.5-46.5v-82.687c98.159-43.102 212.547 32.47 211.315 139.802.001 9.499.442 20.56 5.717 31.592 6.584 13.773 11.438 30.06 14.037 47.097 1.434 9.398 16.305 7.417 14.828-2.262-2.818-18.477-8.12-36.217-15.332-51.304-3.538-7.401-4.249-15.102-4.249-25.125 1.652-114.954-119.67-198.36-226.317-155.979v-19.374c0-36.383-29.62-65.983-66.027-65.983h-131.131c-36.407 0-66.027 29.6-66.027 65.983v15.021c0 9.697 15 9.697 15 0v-15.021c0-28.112 22.89-50.983 51.027-50.983h131.131c28.137 0 51.027 22.871 51.027 50.983v118.238c0 27.636-23.367 50.983-51.027 50.983h-18.516c-4.143 0-7.5 3.357-7.5 7.5v20.196l-35.696-26.239c-1.288-.946-2.845-1.457-4.442-1.457h-64.977c-28.137 0-51.027-22.871-51.027-50.983v-63.23c0-9.697-15-9.697-15 0v63.23c0 36.384 29.62 65.983 66.027 65.983h62.517l22.744 16.719c-25.653 53.146-23.591 119.914 4.901 171.632-8.188 20.624-12.607 42.938-12.607 65.944 0 9.697 15 9.697 15 0 0-63.394 36.622-121.047 93.677-148.114 39.682 30.757 101.339 30.273 140.322-.02 57.055 27.055 93.72 84.801 93.72 148.134 0 9.697 15 9.697 15 0 0-22.77-4.342-44.878-12.391-65.346 12.954-23.795 20.399-50.008 22.137-77.971.256-4.133-2.886-7.693-7.02-7.95zm-245.756-11.138c-19.105-17.12-32.944-37.155-37.448-62.913 72.97 11.221 147.25-12.212 184.107-79.882 70.224 98.525-50.13 215.585-146.659 142.795z"/><path d="m142.116 57.752c-6.964-1.82-14.892 1.204-18.14 7.85l-17.803 36.402c-16.724-17.831-47.373-5.857-47.338 18.882v45.992c.242 27.496 35.852 37.579 50.56 14.775 6.753 5.573 15.216 8.621 24.039 8.621 13.323 0 26.646-.056 39.969-.021 7.767 0 14.528-5.249 16.444-12.734l14.63-57.14c2.116-10.658-5.055-21.404-16.416-21.404-11.339.036-22.678.034-34.017.039v-26.024c0-7.244-4.794-13.368-11.928-15.238zm-55.838 121.569c-6.86 0-12.442-5.582-12.442-12.443v-45.992c.679-16.498 24.201-16.51 24.886 0-.384 15.314-.165 30.674 0 45.992-.001 6.861-5.583 12.443-12.444 12.443zm101.77-65.345c1.338.294 2.209 1.283 1.902 2.665l-14.58 56.951-.042.16c-.227.885-1.019 1.502-1.928 1.502-13.322-.037-26.645.021-39.967.021-8.327 0-18.625-5.303-19.713-14.421v-38.388c.181-1.524.619-3.02 1.293-4.397l22.305-45.605c.761-.441 1.336-.265 1.726.527v33.526c0 4.143 3.357 7.5 7.5 7.5 7.161 0 39.184-.033 41.504-.041z"/></g></svg>