<svg xmlns="http://www.w3.org/2000/svg" xmlns:xlink="http://www.w3.org/1999/xlink" version="1.1" id="Layer_1" x="0px" y="0px" viewBox="0 0 512 512" style="enable-background:new 0 0 512 512;" xml:space="preserve" width="512" height="512"><g><g><path d="M298.935,235.593l33.763-7.66c14.154,9.825,31.121,15.192,48.294,15.192c0.001,0,0.002,0,0.003,0 c5.301,0,10.65-0.506,15.895-1.506c22.219-4.218,41.466-16.848,54.197-35.556c12.732-18.714,17.416-41.267,13.188-63.497 c-7.573-39.956-42.531-68.956-83.123-68.956c-5.293,0-10.634,0.505-15.874,1.498c-45.878,8.709-76.12,53.146-67.41,99.068 c0.92,4.824,2.242,9.528,3.94,14.038l-14.36,33.599c-1.487,3.48-0.898,7.501,1.526,10.407 C291.396,235.127,295.243,236.43,298.935,235.593z M321.934,184.25c-1.92-4.356-3.36-9.016-4.28-13.838 c-6.638-35.001,16.41-68.879,51.378-75.516c4.005-0.76,8.083-1.146,12.119-1.146c30.925,0,57.56,22.106,63.335,52.571 c3.224,16.953-0.346,34.146-10.052,48.41c-9.703,14.261-24.371,23.884-41.306,27.101c-4.011,0.764-8.092,1.15-12.133,1.15h-0.001 c-14.317,0-28.457-4.907-39.814-13.814c-1.79-1.404-3.983-2.147-6.216-2.147c-0.743,0-1.49,0.082-2.228,0.25l-19.012,4.314 l8.256-19.317C323.074,189.703,323.058,186.802,321.934,184.25z"/><path d="M347.29,168.436h0.198c5.562,0,10.071-4.51,10.071-10.07c0-5.563-4.509-10.071-10.071-10.071h-0.198 c-5.562,0-10.071,4.509-10.071,10.071C337.219,163.926,341.728,168.436,347.29,168.436z"/><path d="M383.648,168.436h0.197c5.561,0,10.071-4.51,10.071-10.07c0-5.563-4.509-10.071-10.071-10.071h-0.197 c-5.562,0-10.071,4.509-10.071,10.071C373.577,163.926,378.086,168.436,383.648,168.436z"/><path d="M417.794,168.436h0.198c5.562,0,10.071-4.51,10.071-10.07c0-5.563-4.509-10.071-10.071-10.071h-0.198 c-5.562,0-10.071,4.509-10.071,10.071C407.724,163.926,412.232,168.436,417.794,168.436z"/><path d="M483.141,28H28.859C12.946,28,0,40.953,0,56.874v305.27c0,15.919,12.946,28.87,28.859,28.87h136.377l-8.713,25.43h-29.615 c-13.507,0-24.495,10.993-24.495,24.504v18.547c0,13.512,10.988,24.506,24.495,24.506h258.157 c13.522,0,24.522-10.994,24.522-24.506v-18.547c0-13.511-11.001-24.504-24.522-24.504h-28.709l-8.713-25.43h135.498 c15.913,0,28.859-12.951,28.859-28.87V56.874C512,40.953,499.054,28,483.141,28z M28.859,48.142h454.282 c4.807,0,8.717,3.917,8.717,8.732v270.3H312.338c-3.188-27.065-15.495-50.615-35.956-68.549 c-13.598-11.919-30.782-21.169-49.92-27.071c18.642-14.284,29.619-34.843,29.619-55.975v-26.003 c2.189-26.229-4.384-48.543-19.043-64.55c-14.207-15.514-35.822-24.411-59.301-24.411c-20.344,0-40.511,6.734-55.331,18.478 c-16.931,13.414-26.255,32.655-26.255,54.176v16.022v26.288c0,19.408,8.951,37.956,25.204,52.226 c1.399,1.229,2.849,2.392,4.322,3.523c-19.281,6.093-36.903,16.438-51.244,30.317c-18.863,18.256-30.671,41.229-33.875,65.528 H20.142v-270.3C20.142,52.059,24.052,48.142,28.859,48.142z M251.735,306.87c-5.562,0-10.071,4.51-10.071,10.071v10.232h-33.085 l-11.277-56.116l7.383-24.166c40.006,7.47,80.592,31.911,87.364,80.282h-30.243v-10.232 C261.806,311.38,257.297,306.87,251.735,306.87z M109.065,327.174v-10.289c0-5.562-4.509-10.071-10.071-10.071 c-5.562,0-10.071,4.51-10.071,10.071v10.289H60.929c6.665-39.914,42.5-73.232,87.159-80.511l7.438,24.393l-11.253,56.118H109.065z  M116.292,158.832c5.383-0.972,11.755-3.271,16.918-8.485c1.718-1.734,3.181-3.659,4.385-5.764 c14.708,9.903,32.188,14.749,52.987,14.749h45.357v16.247c0,16.085-9.458,31.99-25.306,42.554 c-10.447,6.979-22.555,10.813-34.124,10.813c-0.105,0-0.21-0.001-0.314-0.001c-5.789-0.037-11.48-0.94-16.916-2.554 c-0.653-0.286-1.333-0.509-2.037-0.652c-23.03-7.686-40.95-28.197-40.95-50.159V158.832z M190.583,139.189 c-21.976,0-38.41-6.229-51.719-19.604c-1.929-1.938-4.512-2.967-7.142-2.967c-1.309,0-2.629,0.256-3.886,0.78 c-3.778,1.582-6.223,5.294-6.182,9.39c0.043,4.338-0.884,7.496-2.756,9.386c-0.746,0.753-1.646,1.331-2.605,1.77v-4.677 c0-34.108,31.658-52.512,61.445-52.512c17.845,0,34.045,6.515,44.447,17.872c9.348,10.207,14.105,23.823,14.189,40.561H190.583z  M179.473,260.478h-6.116l-3.571-11.712c2.095,0.186,4.191,0.305,6.283,0.318c0.144,0.001,0.287,0.002,0.431,0.002 c2.174,0,4.358-0.109,6.546-0.305L179.473,260.478z M174.151,280.619h4.527l9.356,46.555h-23.219L174.151,280.619z  M335.064,416.443h-39.15c-5.561,0-10.071,4.51-10.071,10.071c0,5.562,4.509,10.071,10.071,10.071h53.196 c0.017,0,0.033,0.002,0.05,0.002c0.016,0,0.032-0.002,0.048-0.002h35.858c2.374,0,4.381,1.997,4.381,4.361v18.547 c0,2.365-2.006,4.364-4.381,4.364H126.908c-2.359,0-4.353-1.999-4.353-4.364v-18.547c0-2.364,1.994-4.361,4.353-4.361h36.763 c0.016,0,0.032,0.002,0.048,0.002c0.017,0,0.033-0.002,0.05-0.002h49.994c5.562,0,10.071-4.51,10.071-10.071 c0-5.561-4.509-10.071-10.071-10.071h-35.948l8.713-25.43h139.824L335.064,416.443z M483.141,370.872H28.859 c-4.807,0-8.717-3.915-8.717-8.729v-14.828h132.354c0.013,0,0.026,0.002,0.04,0.002c0.015,0,0.03-0.002,0.044-0.002h47.696 c0.015,0,0.029,0.002,0.044,0.002c0.013,0,0.026-0.002,0.039-0.002h291.499v14.828 C491.858,366.875,487.866,370.872,483.141,370.872z"/><path d="M255.985,436.586h0.199c5.562,0,10.071-4.51,10.071-10.071c0-5.561-4.509-10.071-10.071-10.071h-0.199 c-5.562,0-10.071,4.51-10.071,10.071C245.915,432.076,250.423,436.586,255.985,436.586z"/></g></g>















</svg>
