<?xml version="1.0" encoding="utf-8"?>
<!DOCTYPE svg PUBLIC "-//W3C//DTD SVG 20010904//EN" "http://www.w3.org/TR/2001/REC-SVG-20010904/DTD/svg10.dtd">
<svg version="1.0" xmlns="http://www.w3.org/2000/svg" width="1366px" height="79px" viewBox="0 0 1366 79" preserveAspectRatio="xMidYMid meet">
 <g fill="#00adc3">
  <path d="M0 61.6 l0 -17.5 4.7 -0.7 c5.6 -0.8 19.2 0 25.6 1.6 4.1 1.1 4.9 1 7.6 -0.9 3.1 -2.2 12.9 -4.2 11.8 -2.4 -0.4 0.6 1.1 0.2 3.2 -0.9 10.7 -5.3 31.2 -6 53.5 -1.8 l10.9 2 3.7 -4 c4.6 -5 13.2 -9 21.8 -10.1 3.7 -0.4 52.1 -0.8 107.5 -0.9 99.3 0 100.9 0 103.4 -2 3.3 -2.6 6.3 -2.5 9.6 0.1 2.6 2 3 2 96.9 1.6 81.7 -0.3 95.9 -0.6 106.3 -2.1 17.9 -2.5 33.9 -5.3 46.2 -8.1 6 -1.3 14.8 -2.9 19.6 -3.4 7.7 -0.9 9.5 -0.8 15 0.9 10.9 3.5 15.9 2.3 17.3 -3.8 1.2 -5.5 1.5 -6 3.7 -6.6 1.3 -0.3 4.5 0.2 7.2 1.1 3.8 1.2 11.6 1.8 33.5 2.3 15.7 0.4 33.7 1.5 40 2.3 6.3 0.9 16.4 2.1 22.5 2.7 34.2 3.5 48 7.8 68.1 21.5 10 6.9 15.7 9 20.7 7.9 5.6 -1.2 8.3 -3.3 9.5 -7.8 1.2 -4.6 1.1 -4.6 15.2 -10.3 12 -4.9 21.7 -10.1 27.6 -14.9 6.9 -5.6 8.6 -6.4 13.6 -6.4 5.3 0 11.6 1.7 24.1 6.3 24.1 9.1 43 19 66.7 35.1 18.3 12.5 21.4 14.2 29.1 15.5 21.1 3.6 42.5 -0.6 55.4 -10.9 8.8 -7.1 17.8 -10.2 29.3 -10.1 9 0 17.4 3.5 24.5 10 4.6 4.3 11 15.1 12.2 20.8 0.6 3.2 0.8 3.3 5.7 3.3 4.7 0 5.3 -0.3 9 -4.5 6.1 -7 17 -11.8 36.3 -16.1 32 -7.2 48.5 -12.8 60.8 -20.8 l6.7 -4.3 4.7 2.3 c6.3 3.3 14.1 3.2 23.6 -0.2 13.1 -4.6 16.1 -5.4 22.4 -5.4 8 0 13.9 2.3 22.5 8.6 l6.7 4.9 0 21.8 0.1 21.7 -683 0 -683 0 0 -17.4z"/>
 </g>
</svg>